<svg width="452" height="79" viewBox="0 0 452 79" fill="none" xmlns="http://www.w3.org/2000/svg">
<g clip-path="url(#clip0)">
<g opacity="0.6">
<g filter="url(#filter0_dddd)">
<path d="M90.4541 2.80547L182.882 56.1687C184.274 56.9726 185.132 58.4581 185.132 60.0658V166.792C185.132 168.4 184.274 169.886 182.882 170.689L90.4541 224.053C89.0618 224.857 87.3464 224.857 85.9541 224.053L-6.47376 170.689C-7.86606 169.886 -8.72375 168.4 -8.72375 166.792V60.0658C-8.72375 58.4581 -7.86606 56.9726 -6.47375 56.1687L85.9541 2.80546C87.3464 2.00162 89.0618 2.00162 90.4541 2.80547Z" stroke="white"/>
</g>
<g filter="url(#filter1_dddd)">
<path d="M250.204 46.8055L267.937 57.0437C269.33 57.8476 270.187 59.3331 270.187 60.9408V81.4173C270.187 83.025 269.33 84.5106 267.937 85.3144L250.204 95.5527C248.812 96.3565 247.096 96.3565 245.704 95.5527L227.971 85.3144C226.579 84.5106 225.721 83.025 225.721 81.4173V60.9408C225.721 59.3331 226.579 57.8476 227.971 57.0437L245.704 46.8055C247.096 46.0016 248.812 46.0016 250.204 46.8055Z" stroke="white"/>
</g>
<g filter="url(#filter2_ddd)">
<path d="M393.954 28.8055L443.514 57.4187C444.906 58.2226 445.764 59.7081 445.764 61.3158V118.542C445.764 120.15 444.906 121.636 443.514 122.439L393.954 151.053C392.562 151.857 390.846 151.857 389.454 151.053L339.894 122.439C338.502 121.636 337.645 120.15 337.645 118.542V61.3158C337.645 59.7081 338.502 58.2226 339.895 57.4187L389.454 28.8055C390.846 28.0016 392.562 28.0016 393.954 28.8055Z" stroke="white"/>
</g>
<g filter="url(#filter3_ddd)">
<path d="M40.2041 5.80547L76.1238 26.5437C77.5161 27.3476 78.3738 28.8331 78.3738 30.4408V71.9173C78.3738 73.525 77.5161 75.0106 76.1238 75.8144L40.2041 96.5527C38.8118 97.3565 37.0964 97.3565 35.7041 96.5527L-0.2156 75.8144C-1.6079 75.0106 -2.4656 73.525 -2.4656 71.9173V30.4408C-2.4656 28.8331 -1.6079 27.3476 -0.215599 26.5437L35.7041 5.80546C37.0964 5.00162 38.8118 5.00162 40.2041 5.80547Z" stroke="white"/>
</g>
<g filter="url(#filter4_ddd)">
<path d="M118.829 34.8055L131.041 41.8562C132.434 42.6601 133.291 44.1456 133.291 45.7533V59.8548C133.291 61.4625 132.434 62.9481 131.041 63.7519L118.829 70.8027C117.437 71.6065 115.721 71.6065 114.329 70.8027L102.117 63.7519C100.725 62.9481 99.8668 61.4625 99.8668 59.8548V45.7533C99.8668 44.1456 100.725 42.6601 102.117 41.8562L114.329 34.8055C115.721 34.0016 117.437 34.0016 118.829 34.8055Z" stroke="white"/>
</g>
<g filter="url(#filter5_ddd)">
<path d="M341.829 46.8055L354.041 53.8562C355.434 54.6601 356.291 56.1456 356.291 57.7533V71.8548C356.291 73.4625 355.434 74.9481 354.041 75.7519L341.829 82.8027C340.437 83.6065 338.721 83.6065 337.329 82.8027L325.117 75.7519C323.725 74.9481 322.867 73.4625 322.867 71.8548V57.7533C322.867 56.1456 323.725 54.6601 325.117 53.8562L337.329 46.8055C338.721 46.0016 340.437 46.0016 341.829 46.8055Z" stroke="white"/>
</g>
<path d="M239.831 28.6778L229.032 17.8153C228.692 17.5178 228.416 17.1526 228.223 16.7429C228.029 16.3332 227.922 15.8876 227.908 15.4343C227.894 14.9809 227.973 14.5296 228.14 14.1084C228.308 13.6873 228.56 13.3056 228.881 12.9871C229.202 12.6687 229.585 12.4204 230.006 12.2579C230.427 12.0954 230.877 12.0222 231.328 12.0429C231.778 12.0635 232.22 12.1776 232.624 12.3779C233.029 12.5782 233.388 12.8605 233.679 13.207L246.769 26.3737C247.368 26.989 247.704 27.8162 247.704 28.6778C247.704 29.5394 247.368 30.3667 246.769 30.982L233.679 44.1487C233.057 44.6927 232.253 44.9805 231.429 44.9545C230.605 44.9285 229.821 44.5906 229.234 44.0085C228.647 43.4263 228.3 42.6427 228.263 41.8143C228.225 40.9859 228.5 40.1738 229.032 39.5403L239.831 28.6778ZM183.577 28.6778L194.376 39.5403C194.908 40.1738 195.183 40.9859 195.146 41.8143C195.108 42.6427 194.761 43.4263 194.174 44.0085C193.587 44.5906 192.803 44.9285 191.979 44.9545C191.155 44.9805 190.352 44.6927 189.729 44.1487L176.64 30.982C176.04 30.3667 175.704 29.5394 175.704 28.6778C175.704 27.8162 176.04 26.989 176.64 26.3737L189.729 13.207C190.352 12.663 191.155 12.3752 191.979 12.4012C192.803 12.4272 193.587 12.765 194.174 13.3472C194.761 13.9294 195.108 14.713 195.146 15.5414C195.183 16.3698 194.908 17.1819 194.376 17.8153L183.577 28.6778ZM208.317 55.8012C208.082 56.6186 207.542 57.3129 206.809 57.7383C206.076 58.1636 205.208 58.2871 204.387 58.0827C203.566 57.8783 202.855 57.362 202.404 56.6421C201.954 55.9221 201.797 55.0545 201.968 54.2212L215.058 1.5545C215.148 1.12067 215.323 0.709399 215.574 0.345332C215.825 -0.0187349 216.146 -0.328108 216.519 -0.564255C216.891 -0.800402 217.307 -0.958463 217.742 -1.02897C218.177 -1.09947 218.622 -1.08097 219.049 -0.97457C219.477 -0.86817 219.878 -0.676062 220.23 -0.409754C220.582 -0.143446 220.877 0.191582 221.097 0.575258C221.318 0.958934 221.458 1.38336 221.512 1.82312C221.565 2.26288 221.529 2.70891 221.407 3.1345L208.317 55.8012Z" fill="white" fill-opacity="0.04"/>
</g>
</g>
<defs>
<filter id="filter0_dddd" x="-49.2236" y="-38.2974" width="274.856" height="303.453" filterUnits="userSpaceOnUse" color-interpolation-filters="sRGB">
<feFlood flood-opacity="0" result="BackgroundImageFix"/>
<feColorMatrix in="SourceAlpha" type="matrix" values="0 0 0 0 0 0 0 0 0 0 0 0 0 0 0 0 0 0 127 0"/>
<feOffset/>
<feGaussianBlur stdDeviation="2"/>
<feColorMatrix type="matrix" values="0 0 0 0 0.87451 0 0 0 0 0.827451 0 0 0 0 0.0901961 0 0 0 1 0"/>
<feBlend mode="normal" in2="BackgroundImageFix" result="effect1_dropShadow"/>
<feColorMatrix in="SourceAlpha" type="matrix" values="0 0 0 0 0 0 0 0 0 0 0 0 0 0 0 0 0 0 127 0"/>
<feOffset/>
<feGaussianBlur stdDeviation="5"/>
<feColorMatrix type="matrix" values="0 0 0 0 0.87451 0 0 0 0 0.827451 0 0 0 0 0.0901961 0 0 0 1 0"/>
<feBlend mode="normal" in2="effect1_dropShadow" result="effect2_dropShadow"/>
<feColorMatrix in="SourceAlpha" type="matrix" values="0 0 0 0 0 0 0 0 0 0 0 0 0 0 0 0 0 0 127 0"/>
<feOffset/>
<feGaussianBlur stdDeviation="10"/>
<feColorMatrix type="matrix" values="0 0 0 0 0.87451 0 0 0 0 0.827451 0 0 0 0 0.0901961 0 0 0 1 0"/>
<feBlend mode="normal" in2="effect2_dropShadow" result="effect3_dropShadow"/>
<feColorMatrix in="SourceAlpha" type="matrix" values="0 0 0 0 0 0 0 0 0 0 0 0 0 0 0 0 0 0 127 0"/>
<feOffset/>
<feGaussianBlur stdDeviation="20"/>
<feColorMatrix type="matrix" values="0 0 0 0 0.984314 0 0 0 0 0.92549 0 0 0 0 0.0352941 0 0 0 1 0"/>
<feBlend mode="normal" in2="effect3_dropShadow" result="effect4_dropShadow"/>
<feBlend mode="normal" in="SourceGraphic" in2="effect4_dropShadow" result="shape"/>
</filter>
<filter id="filter1_dddd" x="185.221" y="5.70264" width="125.466" height="130.953" filterUnits="userSpaceOnUse" color-interpolation-filters="sRGB">
<feFlood flood-opacity="0" result="BackgroundImageFix"/>
<feColorMatrix in="SourceAlpha" type="matrix" values="0 0 0 0 0 0 0 0 0 0 0 0 0 0 0 0 0 0 127 0"/>
<feOffset/>
<feGaussianBlur stdDeviation="2"/>
<feColorMatrix type="matrix" values="0 0 0 0 0.87451 0 0 0 0 0.827451 0 0 0 0 0.0901961 0 0 0 1 0"/>
<feBlend mode="normal" in2="BackgroundImageFix" result="effect1_dropShadow"/>
<feColorMatrix in="SourceAlpha" type="matrix" values="0 0 0 0 0 0 0 0 0 0 0 0 0 0 0 0 0 0 127 0"/>
<feOffset/>
<feGaussianBlur stdDeviation="5"/>
<feColorMatrix type="matrix" values="0 0 0 0 0.87451 0 0 0 0 0.827451 0 0 0 0 0.0901961 0 0 0 1 0"/>
<feBlend mode="normal" in2="effect1_dropShadow" result="effect2_dropShadow"/>
<feColorMatrix in="SourceAlpha" type="matrix" values="0 0 0 0 0 0 0 0 0 0 0 0 0 0 0 0 0 0 127 0"/>
<feOffset/>
<feGaussianBlur stdDeviation="10"/>
<feColorMatrix type="matrix" values="0 0 0 0 0.87451 0 0 0 0 0.827451 0 0 0 0 0.0901961 0 0 0 1 0"/>
<feBlend mode="normal" in2="effect2_dropShadow" result="effect3_dropShadow"/>
<feColorMatrix in="SourceAlpha" type="matrix" values="0 0 0 0 0 0 0 0 0 0 0 0 0 0 0 0 0 0 127 0"/>
<feOffset/>
<feGaussianBlur stdDeviation="20"/>
<feColorMatrix type="matrix" values="0 0 0 0 0.984314 0 0 0 0 0.92549 0 0 0 0 0.0352941 0 0 0 1 0"/>
<feBlend mode="normal" in2="effect3_dropShadow" result="effect4_dropShadow"/>
<feBlend mode="normal" in="SourceGraphic" in2="effect4_dropShadow" result="shape"/>
</filter>
<filter id="filter2_ddd" x="325.145" y="15.7026" width="133.119" height="148.453" filterUnits="userSpaceOnUse" color-interpolation-filters="sRGB">
<feFlood flood-opacity="0" result="BackgroundImageFix"/>
<feColorMatrix in="SourceAlpha" type="matrix" values="0 0 0 0 0 0 0 0 0 0 0 0 0 0 0 0 0 0 127 0"/>
<feOffset/>
<feGaussianBlur stdDeviation="1"/>
<feColorMatrix type="matrix" values="0 0 0 0 0.854902 0 0 0 0 0.807843 0 0 0 0 0.101961 0 0 0 1 0"/>
<feBlend mode="normal" in2="BackgroundImageFix" result="effect1_dropShadow"/>
<feColorMatrix in="SourceAlpha" type="matrix" values="0 0 0 0 0 0 0 0 0 0 0 0 0 0 0 0 0 0 127 0"/>
<feOffset/>
<feGaussianBlur stdDeviation="2.5"/>
<feColorMatrix type="matrix" values="0 0 0 0 0.854902 0 0 0 0 0.807843 0 0 0 0 0.101961 0 0 0 1 0"/>
<feBlend mode="normal" in2="effect1_dropShadow" result="effect2_dropShadow"/>
<feColorMatrix in="SourceAlpha" type="matrix" values="0 0 0 0 0 0 0 0 0 0 0 0 0 0 0 0 0 0 127 0"/>
<feOffset/>
<feGaussianBlur stdDeviation="6"/>
<feColorMatrix type="matrix" values="0 0 0 0 0.984314 0 0 0 0 0.92549 0 0 0 0 0.0352941 0 0 0 1 0"/>
<feBlend mode="normal" in2="effect2_dropShadow" result="effect3_dropShadow"/>
<feBlend mode="normal" in="SourceGraphic" in2="effect3_dropShadow" result="shape"/>
</filter>
<filter id="filter3_ddd" x="-14.9658" y="-7.29736" width="105.839" height="116.953" filterUnits="userSpaceOnUse" color-interpolation-filters="sRGB">
<feFlood flood-opacity="0" result="BackgroundImageFix"/>
<feColorMatrix in="SourceAlpha" type="matrix" values="0 0 0 0 0 0 0 0 0 0 0 0 0 0 0 0 0 0 127 0"/>
<feOffset/>
<feGaussianBlur stdDeviation="1"/>
<feColorMatrix type="matrix" values="0 0 0 0 0.854902 0 0 0 0 0.807843 0 0 0 0 0.101961 0 0 0 1 0"/>
<feBlend mode="normal" in2="BackgroundImageFix" result="effect1_dropShadow"/>
<feColorMatrix in="SourceAlpha" type="matrix" values="0 0 0 0 0 0 0 0 0 0 0 0 0 0 0 0 0 0 127 0"/>
<feOffset/>
<feGaussianBlur stdDeviation="2.5"/>
<feColorMatrix type="matrix" values="0 0 0 0 0.854902 0 0 0 0 0.807843 0 0 0 0 0.101961 0 0 0 1 0"/>
<feBlend mode="normal" in2="effect1_dropShadow" result="effect2_dropShadow"/>
<feColorMatrix in="SourceAlpha" type="matrix" values="0 0 0 0 0 0 0 0 0 0 0 0 0 0 0 0 0 0 127 0"/>
<feOffset/>
<feGaussianBlur stdDeviation="6"/>
<feColorMatrix type="matrix" values="0 0 0 0 0.984314 0 0 0 0 0.92549 0 0 0 0 0.0352941 0 0 0 1 0"/>
<feBlend mode="normal" in2="effect2_dropShadow" result="effect3_dropShadow"/>
<feBlend mode="normal" in="SourceGraphic" in2="effect3_dropShadow" result="shape"/>
</filter>
<filter id="filter4_ddd" x="87.3672" y="21.7026" width="58.4245" height="62.203" filterUnits="userSpaceOnUse" color-interpolation-filters="sRGB">
<feFlood flood-opacity="0" result="BackgroundImageFix"/>
<feColorMatrix in="SourceAlpha" type="matrix" values="0 0 0 0 0 0 0 0 0 0 0 0 0 0 0 0 0 0 127 0"/>
<feOffset/>
<feGaussianBlur stdDeviation="1"/>
<feColorMatrix type="matrix" values="0 0 0 0 0.117647 0 0 0 0 0.784314 0 0 0 0 0.784314 0 0 0 1 0"/>
<feBlend mode="normal" in2="BackgroundImageFix" result="effect1_dropShadow"/>
<feColorMatrix in="SourceAlpha" type="matrix" values="0 0 0 0 0 0 0 0 0 0 0 0 0 0 0 0 0 0 127 0"/>
<feOffset/>
<feGaussianBlur stdDeviation="2.5"/>
<feColorMatrix type="matrix" values="0 0 0 0 0.117647 0 0 0 0 0.784314 0 0 0 0 0.784314 0 0 0 1 0"/>
<feBlend mode="normal" in2="effect1_dropShadow" result="effect2_dropShadow"/>
<feColorMatrix in="SourceAlpha" type="matrix" values="0 0 0 0 0 0 0 0 0 0 0 0 0 0 0 0 0 0 127 0"/>
<feOffset/>
<feGaussianBlur stdDeviation="6"/>
<feColorMatrix type="matrix" values="0 0 0 0 0.117647 0 0 0 0 0.784314 0 0 0 0 0.784314 0 0 0 1 0"/>
<feBlend mode="normal" in2="effect2_dropShadow" result="effect3_dropShadow"/>
<feBlend mode="normal" in="SourceGraphic" in2="effect3_dropShadow" result="shape"/>
</filter>
<filter id="filter5_ddd" x="310.367" y="33.7026" width="58.4245" height="62.203" filterUnits="userSpaceOnUse" color-interpolation-filters="sRGB">
<feFlood flood-opacity="0" result="BackgroundImageFix"/>
<feColorMatrix in="SourceAlpha" type="matrix" values="0 0 0 0 0 0 0 0 0 0 0 0 0 0 0 0 0 0 127 0"/>
<feOffset/>
<feGaussianBlur stdDeviation="1"/>
<feColorMatrix type="matrix" values="0 0 0 0 0.117647 0 0 0 0 0.784314 0 0 0 0 0.784314 0 0 0 1 0"/>
<feBlend mode="normal" in2="BackgroundImageFix" result="effect1_dropShadow"/>
<feColorMatrix in="SourceAlpha" type="matrix" values="0 0 0 0 0 0 0 0 0 0 0 0 0 0 0 0 0 0 127 0"/>
<feOffset/>
<feGaussianBlur stdDeviation="2.5"/>
<feColorMatrix type="matrix" values="0 0 0 0 0.117647 0 0 0 0 0.784314 0 0 0 0 0.784314 0 0 0 1 0"/>
<feBlend mode="normal" in2="effect1_dropShadow" result="effect2_dropShadow"/>
<feColorMatrix in="SourceAlpha" type="matrix" values="0 0 0 0 0 0 0 0 0 0 0 0 0 0 0 0 0 0 127 0"/>
<feOffset/>
<feGaussianBlur stdDeviation="6"/>
<feColorMatrix type="matrix" values="0 0 0 0 0.117647 0 0 0 0 0.784314 0 0 0 0 0.784314 0 0 0 1 0"/>
<feBlend mode="normal" in2="effect2_dropShadow" result="effect3_dropShadow"/>
<feBlend mode="normal" in="SourceGraphic" in2="effect3_dropShadow" result="shape"/>
</filter>
<clipPath id="clip0">
<rect width="451" height="79" fill="white" transform="translate(0.209961)"/>
</clipPath>
</defs>
</svg>
