<svg width="29" height="51" viewBox="0 0 29 51" fill="none" xmlns="http://www.w3.org/2000/svg">
<path fill-rule="evenodd" clip-rule="evenodd" d="M14.2819 0.641602H14.2866C14.6053 5.8229 17.3206 10.356 21.3376 13.1462V13.2472H21.3367C21.3262 14.1456 21.1441 15.0341 20.8001 15.8646C20.4455 16.7207 19.9258 17.4985 19.2706 18.1537C19.0001 18.4242 18.7086 18.6716 18.3994 18.8939C17.5186 21.6872 17.0436 24.6606 17.0436 27.7449C17.0436 37.1652 21.4744 45.5507 28.3657 50.931H14.3079H0.25C7.14125 45.5507 11.572 37.1652 11.572 27.7449C11.572 24.6783 11.1025 21.7213 10.2314 18.942C9.89689 18.7075 9.58261 18.4439 9.29238 18.1537C8.6372 17.4985 8.11749 16.7207 7.7629 15.8646C7.41887 15.0341 7.23683 14.1456 7.22631 13.2472H7.22628V13.2445C7.22598 13.2178 7.22582 13.1912 7.22582 13.1646H7.22628V13.1464C11.2433 10.3561 13.9584 5.82295 14.277 0.641602H14.2819Z" fill="#FD6059"/>
</svg>
