<svg width="29" height="54" viewBox="0 0 29 54" fill="none" xmlns="http://www.w3.org/2000/svg">
<path fill-rule="evenodd" clip-rule="evenodd" d="M14.5859 6.92811C15.0993 6.34465 15.472 5.6345 15.6513 4.85062C16.4353 4.6713 17.1455 4.29843 17.729 3.78497C17.1455 3.27163 16.4353 2.89888 15.6514 2.71964C15.4722 1.93554 15.0993 1.2252 14.5858 0.641602C14.0723 1.22521 13.6995 1.93556 13.5202 2.71968C12.7362 2.89898 12.0259 3.27186 11.4424 3.78537C12.026 4.2988 12.7363 4.6716 13.5204 4.8508C13.6997 5.63461 14.0724 6.34469 14.5857 6.92811C12.9601 6.93089 11.4635 7.4834 10.2718 8.40967C8.71219 8.30663 7.17779 8.11145 5.67397 7.82953C6.78651 9.62816 7.45443 11.7308 7.52429 13.9842H7.54236C7.54248 16.0059 8.39291 17.829 9.75552 19.1153C11.1314 22.5175 11.889 26.2359 11.889 30.1312C11.889 39.5516 7.4582 47.9371 0.566895 53.3173H14.6249H28.6832C21.7919 47.9371 17.3611 39.5516 17.3611 30.1312C17.3611 26.2033 18.1314 22.4554 19.5292 19.0302C20.8399 17.7492 21.6536 15.9617 21.6537 13.9842H21.6869C21.7568 11.7308 22.4247 9.62807 23.5373 7.82942C22.029 8.11221 20.4899 8.30774 18.9254 8.41056C17.7305 7.48142 16.2289 6.9281 14.598 6.9281L14.5859 6.92811Z" fill="#44E0DB"/>
</svg>
