<svg width="29" height="46" viewBox="0 0 29 46" fill="none" xmlns="http://www.w3.org/2000/svg">
<path fill-rule="evenodd" clip-rule="evenodd" d="M16.1248 0.974854C19.0902 6.08893 23.5528 10.2269 28.9127 12.7888C27.705 14.3263 26.6473 15.9872 25.7616 17.7495C24.4991 17.0838 23.1524 16.5836 21.7547 16.2638C20.6095 16.0018 19.4426 15.8638 18.2738 15.8503C17.768 18.0109 17.5005 20.2632 17.5005 22.578C17.5005 31.9984 21.9314 40.384 28.8228 45.7643H14.765H0.706543C5.07989 42.3499 8.46232 37.7252 10.3503 32.3938C4.66161 29.8011 0.707401 24.065 0.707401 17.4054C0.707401 8.66428 7.51971 1.51427 16.1248 0.974854Z" fill="#44E0DB"/>
</svg>
