<svg width="29" height="54" viewBox="0 0 29 54" fill="none" xmlns="http://www.w3.org/2000/svg">
<path fill-rule="evenodd" clip-rule="evenodd" d="M19.902 3.36039C22.0365 3.36039 23.9496 2.41255 25.2434 0.914795C25.1196 1.61976 25.0551 2.34514 25.0551 3.08559C25.0551 3.91062 25.1352 4.71693 25.2882 5.49716C23.2064 7.5928 21.8645 10.4243 21.6868 13.5671C21.6916 13.6735 21.694 13.7806 21.694 13.8883C21.694 15.8784 20.87 17.6761 19.5447 18.9588C18.1285 22.4032 17.3475 26.1759 17.3475 30.1309C17.3475 39.5514 21.7784 47.9369 28.6698 53.3172H14.6383H14.6119H0.580078C7.47151 47.9369 11.9024 39.5514 11.9024 30.1309C11.9024 26.174 11.1207 22.3998 9.70327 18.9541H9.7271C8.40459 17.6717 7.58267 15.876 7.58267 13.8883C7.58267 13.8882 7.58267 13.8882 7.58267 13.8881H7.54932C7.44793 10.6176 6.08667 7.66437 3.93461 5.49762C4.08762 4.71723 4.16781 3.91075 4.16781 3.08555C4.16781 2.34518 4.10326 1.61989 3.97949 0.914992C5.2733 2.41249 7.18627 3.36014 9.32057 3.36014C11.4274 3.36014 13.3186 2.43669 14.6115 0.972454V0.973159C15.9043 2.43713 17.7953 3.36039 19.902 3.36039Z" fill="#44E0DB"/>
</svg>
