<svg width="29" height="45" viewBox="0 0 29 45" fill="none" xmlns="http://www.w3.org/2000/svg">
<path fill-rule="evenodd" clip-rule="evenodd" d="M10.2112 2.99543L5.9827 0.171292C5.49032 1.31292 5.21752 2.57146 5.21752 3.89373C5.21752 7.53476 7.28598 10.6927 10.3119 12.2565C11.3341 15.2433 11.8889 18.4471 11.8889 21.7803C11.8889 31.2006 7.45811 39.5861 0.566895 44.9664H14.6251H28.6829C21.7917 39.5861 17.3609 31.2006 17.3609 21.7803C17.3609 18.4471 17.9157 15.2435 18.9378 12.2567C21.964 10.693 24.0326 7.53493 24.0326 3.89373C24.0326 2.55377 23.7525 1.27923 23.2476 0.125511L18.8964 2.99543L14.5889 0.113281L10.2112 2.99543Z" fill="#44E0DB"/>
</svg>
