<svg width="14" height="18" viewBox="0 0 14 18" fill="none" xmlns="http://www.w3.org/2000/svg">
<path d="M12.9998 0C13.2447 3.23106e-05 13.4811 0.0899562 13.6642 0.252715C13.8472 0.415475 13.9641 0.639749 13.9928 0.883L13.9998 1V17C13.9995 17.2549 13.9019 17.5 13.7269 17.6854C13.552 17.8707 13.3128 17.9822 13.0584 17.9972C12.804 18.0121 12.5534 17.9293 12.358 17.7657C12.1625 17.6021 12.0369 17.3701 12.0068 17.117L11.9998 17V1C11.9998 0.734784 12.1051 0.48043 12.2927 0.292893C12.4802 0.105357 12.7346 0 12.9998 0ZM0.292787 0.293C0.464979 0.120823 0.694079 0.0173921 0.937105 0.00211096C1.18013 -0.0131702 1.42038 0.0607488 1.61279 0.21L1.70679 0.293L9.70679 8.293C9.87896 8.46519 9.98239 8.69429 9.99767 8.93732C10.013 9.18034 9.93904 9.4206 9.78979 9.613L9.70679 9.707L1.70679 17.707C1.52683 17.8863 1.28535 17.9905 1.0314 17.9982C0.777453 18.006 0.530073 17.9168 0.339508 17.7488C0.148942 17.5807 0.0294809 17.3464 0.00538731 17.0935C-0.0187063 16.8406 0.0543746 16.588 0.209786 16.387L0.292787 16.293L7.58579 9L0.292787 1.707C0.105316 1.51947 0 1.26516 0 1C0 0.734836 0.105316 0.480528 0.292787 0.293Z" fill="#010101"/>
</svg>
