<svg width="14" height="18" viewBox="0 0 14 18" fill="none" xmlns="http://www.w3.org/2000/svg">
<path d="M1 0C0.755067 3.23106e-05 0.518663 0.0899562 0.335628 0.252715C0.152593 0.415475 0.0356572 0.639749 0.00699997 0.883L0 1V17C0.000282707 17.2549 0.0978789 17.5 0.272848 17.6854C0.447817 17.8707 0.686953 17.9822 0.941395 17.9972C1.19584 18.0121 1.44638 17.9293 1.64183 17.7657C1.83729 17.6021 1.9629 17.3701 1.993 17.117L2 17V1C2 0.734784 1.89464 0.48043 1.70711 0.292893C1.51957 0.105357 1.26522 0 1 0ZM13.707 0.293C13.5348 0.120823 13.3057 0.0173921 13.0627 0.00211096C12.8197 -0.0131702 12.5794 0.0607488 12.387 0.21L12.293 0.293L4.293 8.293C4.12082 8.46519 4.01739 8.69429 4.00211 8.93732C3.98683 9.18034 4.06075 9.4206 4.21 9.613L4.293 9.707L12.293 17.707C12.473 17.8863 12.7144 17.9905 12.9684 17.9982C13.2223 18.006 13.4697 17.9168 13.6603 17.7488C13.8508 17.5807 13.9703 17.3464 13.9944 17.0935C14.0185 16.8406 13.9454 16.588 13.79 16.387L13.707 16.293L6.414 9L13.707 1.707C13.8945 1.51947 13.9998 1.26516 13.9998 1C13.9998 0.734836 13.8945 0.480528 13.707 0.293Z" fill="#010101"/>
</svg>