<svg width="11" height="18" viewBox="0 0 11 18" fill="none" xmlns="http://www.w3.org/2000/svg">
<path d="M1.2929 0.292861C1.46509 0.120685 1.69419 0.0172534 1.93722 0.00197221C2.18025 -0.013309 2.4205 0.06061 2.6129 0.209861L2.7069 0.292861L10.7069 8.29286C10.8791 8.46505 10.9825 8.69415 10.9978 8.93718C11.0131 9.18021 10.9392 9.42046 10.7899 9.61286L10.7069 9.70686L2.7069 17.7069C2.52694 17.8862 2.28547 17.9903 2.03152 17.9981C1.77757 18.0058 1.53019 17.9166 1.33962 17.7486C1.14906 17.5806 1.0296 17.3463 1.0055 17.0934C0.981408 16.8405 1.00003 17 1.00003 17L1.00029 0.999861C1.00029 0.734697 1.10543 0.480389 1.2929 0.292861Z" fill="#010101"/>
</svg>
