<svg width="9" height="18" viewBox="0 0 9 20" fill="none" xmlns="http://www.w3.org/2000/svg">
<path d="M8.32726 0.834642C8.18116 0.653404 7.98677 0.544529 7.78056 0.528443C7.57436 0.512358 7.37051 0.590167 7.20726 0.747274L7.1275 0.834642L0.339622 9.2557C0.193534 9.43695 0.105774 9.67811 0.0928078 9.93393C0.0798426 10.1897 0.142561 10.4426 0.269198 10.6452L0.339622 10.7441L7.1275 19.1652C7.28019 19.354 7.48508 19.4636 7.70055 19.4717C7.91603 19.4799 8.12592 19.386 8.28762 19.2091C8.44931 19.0322 8.55067 18.7856 8.57111 18.5194C8.59156 18.2532 8.52955 17.9873 8.39768 17.7757L8.32726 17.6767L2.13926 9.99991L8.32726 2.32306C8.48632 2.12567 8.57568 1.85797 8.57568 1.57885C8.57568 1.29973 8.48632 1.03204 8.32726 0.834642Z" fill="#010101"/>
</svg>
