<?xml version="1.0" encoding="utf-8"?>
<!-- Svg Vector Icons : http://www.onlinewebfonts.com/icon -->
<!DOCTYPE svg PUBLIC "-//W3C//DTD SVG 1.1//EN" "http://www.w3.org/Graphics/SVG/1.1/DTD/svg11.dtd">
<svg version="1.1" xmlns="http://www.w3.org/2000/svg" xmlns:xlink="http://www.w3.org/1999/xlink" x="0px" y="0px" viewBox="0 0 1000 1000" enable-background="new 0 0 1000 1000" xml:space="preserve">
<metadata> Svg Vector Icons : http://www.onlinewebfonts.com/icon </metadata>
<g><path d="M951.5,309.3c-24.7-58.3-60-110.7-105-155.7c-45-45-97.4-80.3-155.7-105C630.3,23,566.1,10,500,10c-66.1,0-130.3,13-190.7,38.5c-58.3,24.7-110.8,60-155.7,105c-45,45-80.3,97.4-105,155.7C23,369.7,10,433.9,10,500c0,66.1,13,130.3,38.5,190.7c24.7,58.3,60,110.7,105,155.7c45,45,97.4,80.3,155.7,105C369.7,977,433.9,990,500,990c66.1,0,130.3-13,190.7-38.5c58.3-24.7,110.7-60,155.7-105c45-45,80.3-97.4,105-155.7C977,630.3,990,566.1,990,500C990,433.9,977,369.7,951.5,309.3L951.5,309.3z M500,956.2C248.4,956.2,43.8,751.6,43.8,500C43.8,248.4,248.4,43.8,500,43.8c251.6,0,456.2,204.7,456.2,456.2C956.2,751.6,751.6,956.2,500,956.2L500,956.2z M240.9,500c0,143.1,116,259.1,259.1,259.1c143.1,0,259.1-116,259.1-259.1c0-143.1-116-259.1-259.1-259.1C356.9,240.9,240.9,356.9,240.9,500L240.9,500z M500,730.3C375,730.3,273.3,627,273.3,500c0-127,101.7-230.3,226.7-230.3c125,0,226.7,103.3,226.7,230.3C726.7,627,625,730.3,500,730.3L500,730.3z" fill="#333"/></g>
</svg>