<?xml version="1.0" encoding="utf-8"?>
<!-- Svg Vector Icons : http://www.onlinewebfonts.com/icon -->
<!DOCTYPE svg PUBLIC "-//W3C//DTD SVG 1.1//EN" "http://www.w3.org/Graphics/SVG/1.1/DTD/svg11.dtd">
<svg version="1.1" xmlns="http://www.w3.org/2000/svg" xmlns:xlink="http://www.w3.org/1999/xlink" x="0px" y="0px" viewBox="0 0 1000 1000" enable-background="new 0 0 1000 1000" xml:space="preserve">
<metadata> Svg Vector Icons : http://www.onlinewebfonts.com/icon </metadata>
<g fill="#333"><g transform="translate(0.000000,511.000000) scale(0.100000,-0.100000)"><path d="M4551.8,4999.1C2911.6,4828,1534.4,3931.5,715.3,2503.3C442.3,2028.6,232.4,1401,136.7,781.7C87.8,457.7,87.8-239.1,136.7-563c163-1063.5,603.1-1968.1,1326.4-2724c755.9-790.5,1737.9-1293.8,2864.6-1467c324-48.9,1020.8-48.9,1344.7,0c1106.3,169.1,2023.2,627.5,2793.3,1397.7c770.2,770.1,1228.6,1687,1397.7,2793.3c48.9,324,48.9,1020.8,0,1344.7c-95.8,617.3-293.4,1208.2-568.4,1701.3c-762,1354.9-2061.9,2253.4-3602.2,2485.7C5438,5007.3,4794.2,5023.6,4551.8,4999.1z M5682.5,4601.8C7968.5,4243.2,9627,2240.5,9537.3-53.7c-14.3-364.7-50.9-627.5-136.5-959.6c-226.1-900.5-764-1760.3-1471-2345.1c-670.3-558.2-1416-896.5-2267.7-1028.9c-309.7-48.9-1014.6-48.9-1324.3,0C3198.9-4210,2196.5-3637.5,1477.3-2757.3c-861.9,1055.4-1198,2436.8-925,3783.5c173.2,861.8,605.1,1658.5,1238.8,2292.1c727.4,727.4,1642.2,1173.6,2675.1,1306C4741.2,4658.9,5399.3,4646.7,5682.5,4601.8z"/></g></g>
</svg>