<?xml version="1.0" encoding="iso-8859-1"?>
<!-- Generator: Adobe Illustrator 19.0.0, SVG Export Plug-In . SVG Version: 6.00 Build 0)  -->
<svg version="1.1" id="Capa_1" xmlns="http://www.w3.org/2000/svg" xmlns:xlink="http://www.w3.org/1999/xlink" x="0px" y="0px"
	 viewBox="0 0 490 490" style="enable-background:new 0 0 490 490;" xml:space="preserve">
<g>
	<g fill="#333">
		<path d="M245,0C109.9,0,0,109.9,0,245s109.9,245,245,245s245-109.9,245-245S380.1,0,245,0z M245,435c-104.8,0-190-85.2-190-190
			S140.2,55,245,55s190,85.2,190,190S349.8,435,245,435z"/>
		<path d="M245,105.1c-77.1,0-139.9,62.8-139.9,139.9S167.9,384.9,245,384.9S384.9,322.1,384.9,245S322.1,105.1,245,105.1z
			 M245,329.9c-46.8,0-84.9-38.1-84.9-84.9s38.1-84.9,84.9-84.9s84.9,38.1,84.9,84.9S291.8,329.9,245,329.9z"/>
		<circle cx="245" cy="245" r="36.7"/>
	</g>
</g>
<g>
</g>
<g>
</g>
<g>
</g>
<g>
</g>
<g>
</g>
<g>
</g>
<g>
</g>
<g>
</g>
<g>
</g>
<g>
</g>
<g>
</g>
<g>
</g>
<g>
</g>
<g>
</g>
<g>
</g>
</svg>
